<svg width="28" height="28" viewBox="0 0 28 28" fill="none" xmlns="http://www.w3.org/2000/svg">
<rect width="28" height="28" rx="14" fill="#0A0A0A" fill-opacity="0.03"/>
<path fill-rule="evenodd" clip-rule="evenodd" d="M10 14.0001C10 14.9114 9.26127 15.6501 8.35 15.6501C7.43873 15.6501 6.7 14.9114 6.7 14.0001C6.7 13.0888 7.43873 12.3501 8.35 12.3501C9.26127 12.3501 10 13.0888 10 14.0001ZM15.65 14.0001C15.65 14.9114 14.9112 15.6501 14 15.6501C13.0887 15.6501 12.35 14.9114 12.35 14.0001C12.35 13.0888 13.0887 12.3501 14 12.3501C14.9112 12.3501 15.65 13.0888 15.65 14.0001ZM19.65 15.6501C20.5613 15.6501 21.3 14.9114 21.3 14.0001C21.3 13.0888 20.5613 12.3501 19.65 12.3501C18.7387 12.3501 18 13.0888 18 14.0001C18 14.9114 18.7387 15.6501 19.65 15.6501Z" fill="#0A0A0A"/>
</svg>
