<svg width="28" height="28" viewBox="0 0 28 28" fill="none" xmlns="http://www.w3.org/2000/svg">
<rect width="28" height="28" rx="14" fill="#0A0A0A" fill-opacity="0.03"/>
<path fill-rule="evenodd" clip-rule="evenodd" d="M11.8699 7C11.6312 7 11.4004 7.08539 11.2191 7.24074L9.45833 8.75H7C5.89543 8.75 5 9.64543 5 10.75V19.25C5 20.3546 5.89543 21.25 7 21.25H21C22.1046 21.25 23 20.3546 23 19.25V10.75C23 9.64543 22.1046 8.75 21 8.75H18.5417L16.7809 7.24074C16.5996 7.08539 16.3688 7 16.1301 7H11.8699ZM14 19C16.2091 19 18 17.2091 18 15C18 12.7909 16.2091 11 14 11C11.7909 11 10 12.7909 10 15C10 17.2091 11.7909 19 14 19ZM14 17.75C15.5188 17.75 16.75 16.5188 16.75 15C16.75 13.4812 15.5188 12.25 14 12.25C12.4812 12.25 11.25 13.4812 11.25 15C11.25 16.5188 12.4812 17.75 14 17.75ZM19.5 13.25C20.0523 13.25 20.5 12.8023 20.5 12.25C20.5 11.6977 20.0523 11.25 19.5 11.25C18.9477 11.25 18.5 11.6977 18.5 12.25C18.5 12.8023 18.9477 13.25 19.5 13.25Z" fill="#0A0A0A"/>
</svg>
