<svg width="28" height="28" viewBox="0 0 28 28" fill="none" xmlns="http://www.w3.org/2000/svg">
<rect width="28" height="28" rx="14" fill="#1DAB61"/>
<path fill-rule="evenodd" clip-rule="evenodd" d="M14.9 8.7501C14.9 8.25304 14.4971 7.8501 14 7.8501C13.5029 7.8501 13.1 8.25304 13.1 8.7501V13.1001H8.75001C8.25295 13.1001 7.85001 13.503 7.85001 14.0001C7.85001 14.4972 8.25295 14.9001 8.75001 14.9001H13.1V19.2501C13.1 19.7472 13.5029 20.1501 14 20.1501C14.4971 20.1501 14.9 19.7472 14.9 19.2501V14.9001H19.25C19.7471 14.9001 20.15 14.4972 20.15 14.0001C20.15 13.503 19.7471 13.1001 19.25 13.1001H14.9V8.7501Z" fill="white"/>
</svg>
