<svg width="34" height="34" viewBox="0 0 34 34" fill="none" xmlns="http://www.w3.org/2000/svg">
<rect width="34" height="34" rx="17" fill="#F4F4F4"/>
<path fill-rule="evenodd" clip-rule="evenodd" d="M17.9 11.7501C17.9 11.253 17.4971 10.8501 17 10.8501C16.5029 10.8501 16.1 11.253 16.1 11.7501V16.1001H11.75C11.2529 16.1001 10.85 16.503 10.85 17.0001C10.85 17.4972 11.2529 17.9001 11.75 17.9001H16.1V22.2501C16.1 22.7472 16.5029 23.1501 17 23.1501C17.4971 23.1501 17.9 22.7472 17.9 22.2501V17.9001H22.25C22.7471 17.9001 23.15 17.4972 23.15 17.0001C23.15 16.503 22.7471 16.1001 22.25 16.1001H17.9V11.7501Z" fill="#767779"/>
</svg>
